PathFileType	4	(X/Y/Z)	/Users/niels/Desktop/University/Third Semester/Perception and Action/Exam/Gymnastics Motion Tracking/Code for Gym Tracking/Analyzed Data/Webcam_Backflip/id1_4_trajectory_Sports2D/id1_4_trajectory_Sports2D_px_person00.trc
DataRate	CameraRate	NumFrames	NumMarkers	Units	OrigDataRate	OrigDataStartFrame	OrigNumFrames
29.71698113207547	29.71698113207547	12	22	m	29.71698113207547	66	106
Frame#	Time	Hip			RHip			RKnee			RAnkle			RBigToe			RSmallToe			RHeel			LHip			LKnee			LAnkle			LBigToe			LSmallToe			LHeel			Neck			Head			Nose			RShoulder			RElbow			RWrist			LShoulder			LElbow			LWrist		
		X1	Y1	Z1	X2	Y2	Z2	X3	Y3	Z3	X4	Y4	Z4	X5	Y5	Z5	X6	Y6	Z6	X7	Y7	Z7	X8	Y8	Z8	X9	Y9	Z9	X10	Y10	Z10	X11	Y11	Z11	X12	Y12	Z12	X13	Y13	Z13	X14	Y14	Z14	X15	Y15	Z15	X16	Y16	Z16	X17	Y17	Z17	X18	Y18	Z18	X19	Y19	Z19	X20	Y20	Z20	X21	Y21	Z21	X22	Y22	Z22
66	2.220952380952381	0.5599645544068992	-0.8417112139461674	0.0	0.5424247710825825	-0.846401890759692	0.0	0.6095615820669944	-0.7558008071615381	0.0	0.6419931160310407	-0.8717996315220429	0.0	0.6969304425691532	-0.8749875673238167	0.0	0.6792370414346433	-0.8821283621371924	0.0	0.6364678559044573	-0.8849383454679794	0.0	0.5824307978112919	-0.8433144642791924	0.0	0.6647752298534695	-0.745223888711917	0.0	0.6510050454937183	-0.858913536516814	0.0	0.7043683871234137	-0.8697283566116406	0.0	0.7005859826209264	-0.8678820491454924	0.0	0.6433142114842891	-0.8744830185662168	0.0	0.5994252878162473	-0.702652915380756	0.0	0.6558321524794881	-0.6557119023418624	0.0	0.6466383957459731	-0.705042817806993	0.0	0.5551355291499466	-0.7148394152121862	0.0	0.5073518268490391	-0.7876198541895717	0.0	0.48641099988216846	-0.86814478473902	0.0	0.6138714564662254	-0.7157486729702256	0.0	0.6003773440856314	-0.7878495398276736	0.0	0.650385011412048	-0.8505929544142597	0.0
67	2.2546031746031745	0.564905985197834	-0.8463526228166168	0.0	0.5477216273356562	-0.8512745342416238	0.0	0.6172609258485253	-0.7606753975278454	0.0	0.6436742553170877	-0.8760758047233483	0.0	0.6984494282955471	-0.8802906525421997	0.0	0.6802458679656036	-0.8868552680734457	0.0	0.6377748535217622	-0.8885118874734166	0.0	0.5870335850322176	-0.8482324561025396	0.0	0.6710373980612752	-0.7510744177279456	0.0	0.6531637973771189	-0.8637210448261473	0.0	0.7062094917753857	-0.8739534686743354	0.0	0.7026031310958306	-0.8719774899286893	0.0	0.6448512758049464	-0.8781877744850193	0.0	0.6105202790089409	-0.7100599260280337	0.0	0.6692566658979527	-0.6663646837385631	0.0	0.6584513586183025	-0.7152256444077936	0.0	0.5649927391651861	-0.7214319355761968	0.0	0.5155102929979025	-0.7931697138470455	0.0	0.48771711388334055	-0.8724024110048938	0.0	0.6228617155425952	-0.7225993763047149	0.0	0.6094674643966882	-0.7967185364643133	0.0	0.6546203839854255	-0.8576602225267399	0.0
68	2.2882539682539678	0.5705029393212524	-0.8487541852685333	0.0	0.5535942769365652	-0.8538302999577116	0.0	0.6257118997078748	-0.7634810284551367	0.0	0.6456180425327862	-0.8780564243845989	0.0	0.7006471201320326	-0.8833337085446552	0.0	0.6821048039414724	-0.8894625295161718	0.0	0.6394635185041597	-0.8898746403901518	0.0	0.5920886973715631	-0.8509480695184481	0.0	0.6777393825699393	-0.7543402626453026	0.0	0.6556530972463637	-0.8660710267606135	0.0	0.7075804279248679	-0.8757695340567035	0.0	0.7044004443088071	-0.8737226600563943	0.0	0.6465531669636293	-0.8796268173062243	0.0	0.6211371498258097	-0.7155408492339862	0.0	0.6817555545921985	-0.6747785308180074	0.0	0.6693426653940001	-0.7230340702826098	0.0	0.5744780048754448	-0.7263153975065422	0.0	0.5227444887994496	-0.7963160411398162	0.0	0.48928229098200615	-0.8733238392236322	0.0	0.631709227317665	-0.7271391216495359	0.0	0.6177935392085135	-0.8030363261699031	0.0	0.6576820103407082	-0.8623699521437028	0.0
69	2.3219047619047615	0.5757542847125373	-0.8484084391501218	0.0	0.5593682247341943	-0.8536554974671885	0.0	0.6348804460602887	-0.7646435523376853	0.0	0.6474087559752845	-0.878279251026367	0.0	0.7028556147600719	-0.8848849772813431	0.0	0.6842924880262916	-0.8905795730578777	0.0	0.6409418913265924	-0.8897123991362618	0.0	0.5964561163593295	-0.850545731662554	0.0	0.684673070294677	-0.7554149867340352	0.0	0.6579920955686228	-0.866450441504407	0.0	0.7082740828530878	-0.876194159589017	0.0	0.7056507080825202	-0.8741149850423109	0.0	0.6479159792905328	-0.8795066323481038	0.0	0.631601687703307	-0.7186194503658923	0.0	0.6938944599384497	-0.6805272606263205	0.0	0.6797670699219807	-0.7279786125632856	0.0	0.5842116149041104	-0.7290799882249293	0.0	0.5296341860629107	-0.79675341553677	0.0	0.49128263450956533	-0.8710749317777345	0.0	0.6402344643251	-0.728773353005063	0.0	0.6246652934529051	-0.8058279677287331	0.0	0.6597524250557819	-0.8645457073568558	0.0
70	2.355555555555555	0.5799955404470784	-0.8449722654052454	0.0	0.5644852735996755	-0.8505200496128925	0.0	0.6444537560959466	-0.7645415406216589	0.0	0.6489132140026073	-0.8770945170130844	0.0	0.7044685472787845	-0.8853794261917315	0.0	0.6863547305946129	-0.8906113727444556	0.0	0.6419277133512963	-0.8884943612831172	0.0	0.5994721973009693	-0.8463080583032954	0.0	0.691472785007673	-0.7548792783676997	0.0	0.6598473337765917	-0.8653085128690017	0.0	0.7083229886189792	-0.8758867312039534	0.0	0.7062688112635346	-0.8737714726381507	0.0	0.6486385443651149	-0.8782913620595558	0.0	0.6420665166630668	-0.7192052543260197	0.0	0.7060184063506961	-0.6837346759151746	0.0	0.6900184842301564	-0.7300930127803857	0.0	0.5945564476449657	-0.7297199232813574	0.0	0.5366796861670676	-0.7946270241215825	0.0	0.4939050047990186	-0.8662973353842647	0.0	0.6481013720445716	-0.7272334014460944	0.0	0.6294254148330793	-0.8046273489163135	0.0	0.6610693923551366	-0.8640154423625654	0.0
71	2.389206349206349	0.5830298717217728	-0.8382629473358513	0.0	0.5685966166090896	-0.8443174163781657	0.0	0.6539985087621477	-0.7634908605644517	0.0	0.6501880958292193	-0.8748832529219353	0.0	0.7052165094610109	-0.8851451885751697	0.0	0.6880133589940711	-0.8899206627035401	0.0	0.6424270605637241	-0.8865807146447925	0.0	0.6011093355491887	-0.8379212412237597	0.0	0.6977355576790234	-0.7534001890489836	0.0	0.6610860043846516	-0.8631348332337556	0.0	0.7080026324405042	-0.8752726177647822	0.0	0.7063537379922468	-0.8730848546770897	0.0	0.6485681740999899	-0.8763245473232596	0.0	0.6525081582540704	-0.7174311077730161	0.0	0.7181302089594312	-0.6848321853984307	0.0	0.7001587875604437	-0.7297788789769485	0.0	0.6055446193901786	-0.7283828585471047	0.0	0.544129679345167	-0.7903985160832422	0.0	0.49736322083522994	-0.8599285536543345	0.0	0.6551493163319769	-0.7225881813526029	0.0	0.6317662080352447	-0.799542988150783	0.0	0.6615216618850795	-0.8607405602312658	0.0
72	2.4228571428571426	0.5849131364248074	-0.8282300737076632	0.0	0.5715078195478297	-0.835013772884472	0.0	0.6630597812668086	-0.7618625835440914	0.0	0.6512845097074786	-0.8722052205462346	0.0	0.7052283257185848	-0.8845567009364511	0.0	0.6891853204355235	-0.8889161620434147	0.0	0.6425571507005756	-0.8843626128913652	0.0	0.6017644313719985	-0.8256142308593651	0.0	0.7031440033291988	-0.7516510306497688	0.0	0.6618234932305319	-0.8604802356740617	0.0	0.7077830632326964	-0.8747185318595586	0.0	0.7061054071429469	-0.8724170569870707	0.0	0.6476512218171807	-0.8740194108696572	0.0	0.6627374483085741	-0.7135029337891943	0.0	0.7298968913614303	-0.6841870988454221	0.0	0.7100553542272696	-0.7275455293394151	0.0	0.6168882706923124	-0.7251240224070807	0.0	0.551998088369184	-0.7846556861292254	0.0	0.5019248123063315	-0.8530279764658331	0.0	0.6614871105850352	-0.7152625452979324	0.0	0.6322269181588948	-0.7911988351079268	0.0	0.6605779886428631	-0.8549556409294948	0.0
73	2.4565079365079363	0.5857483983835131	-0.8150087681017338	0.0	0.5730873051915849	-0.822647323550838	0.0	0.6711979104753962	-0.7601009188497816	0.0	0.6521608284132184	-0.8696900002220377	0.0	0.7047986109536052	-0.8840074554517197	0.0	0.6898313803229797	-0.8880047995886237	0.0	0.6424275156372117	-0.882308876761703	0.0	0.6019882681616324	-0.8101412365758772	0.0	0.7075197757791318	-0.7501703925407696	0.0	0.6623592558997478	-0.8578886432842581	0.0	0.7081793679410902	-0.8745472800126606	0.0	0.705767442765886	-0.8720998307484976	0.0	0.6460266726063649	-0.8718900476800432	0.0	0.6724045709433942	-0.7076324711800359	0.0	0.7408352772794508	-0.6819013758513559	0.0	0.7194147770796988	-0.7237354558049182	0.0	0.628047704461151	-0.7198928198490562	0.0	0.5601805100033792	-0.7779921340836237	0.0	0.5079161971293681	-0.8465906525759875	0.0	0.6672993324737977	-0.7060001227935491	0.0	0.632157096160043	-0.7805401723714521	0.0	0.6578827480569222	-0.8471543680805688	0.0
74	2.49015873015873	0.5856503204747255	-0.7990365640418661	0.0	0.573263414423357	-0.8073957349672528	0.0	0.6780454294801768	-0.758583076891028	0.0	0.652735601630001	-0.8677837806463612	0.0	0.7041421310642769	-0.8837863953338193	0.0	0.6898505299860663	-0.8874859136905324	0.0	0.6421456198003036	-0.8808485655781175	0.0	0.6022719788926263	-0.7925199409006383	0.0	0.7108289125960042	-0.7491938072381424	0.0	0.6629311343711227	-0.8557510214327837	0.0	0.7094431063632882	-0.8749086121566363	0.0	0.7055465123791054	-0.8722888811055635	0.0	0.6439766313722795	-0.8703740127583339	0.0	0.6810891190878544	-0.7000450774733026	0.0	0.7506327336351937	-0.6778754625417729	0.0	0.7278481684144478	-0.7183422857383335	0.0	0.6383163502096203	-0.7126736242570388	0.0	0.5685883518284894	-0.7709315224827871	0.0	0.5157299083540333	-0.8413322138049488	0.0	0.6726904634641141	-0.6956619426331573	0.0	0.6330883600967987	-0.7686092806714387	0.0	0.6539597066098237	-0.8380048949411067	0.0
75	2.5238095238095233	0.5848093905135034	-0.7811688032685505	0.0	0.572184393597656	-0.7897844080983834	0.0	0.683325202196924	-0.7574856801695938	0.0	0.6529648149685315	-0.8666086579101224	0.0	0.7033611728711165	-0.8839619464387203	0.0	0.6892471518016302	-0.8874470468378644	0.0	0.6418283104638374	-0.8801795959725214	0.0	0.6028906800193973	-0.7738234239767082	0.0	0.7131636102841046	-0.7486241863900279	0.0	0.6635980521963075	-0.8541924481224151	0.0	0.711305970464583	-0.875738836650376	0.0	0.7055204991009988	-0.8728940857399244	0.0	0.6419515800406133	-0.8695878320166307	0.0	0.6884513327861694	-0.6909406651800843	0.0	0.7591861762230299	-0.6718678358130036	0.0	0.7350252039865843	-0.7110460900194586	0.0	0.6470235353864634	-0.7035096236719026	0.0	0.5772698520343708	-0.7637938358932335	0.0	0.5258643056593973	-0.8374628522545509	0.0	0.6777405060755016	-0.684951018379596	0.0	0.6362955252774469	-0.7564913400651789	0.0	0.6503961290362885	-0.8282636487974387	0.0
76	2.557460317460317	0.5835799034824214	-0.7627111954807559	0.0	0.5704077440413903	-0.7709299203276905	0.0	0.6868379169690251	-0.756764460848496	0.0	0.6528830757705406	-0.8660487916310884	0.0	0.7025560659643828	-0.8843731910291344	0.0	0.6883325947496598	-0.8877417295532317	0.0	0.6415531113858208	-0.8802359174709092	0.0	0.6038531605245202	-0.7552306797403414	0.0	0.7146487065717433	-0.7482102151065007	0.0	0.6644195611068369	-0.8531698821521007	0.0	0.7130759834290451	-0.8768595953300555	0.0	0.7056703503827186	-0.8736479256763571	0.0	0.640916845401831	-0.8693203526740991	0.0	0.6943280456900036	-0.6804071402798598	0.0	0.7663216022015976	-0.6634321094938236	0.0	0.740803218854545	-0.7014124580920942	0.0	0.6538456338772783	-0.692394341083176	0.0	0.5864104723458096	-0.756545651881356	0.0	0.5389495603087779	-0.8344883319111694	0.0	0.6825467654709542	-0.6742732159310191	0.0	0.6425333363388349	-0.7451554966599846	0.0	0.6494392626080767	-0.8185801499260131	0.0
77	2.5911111111111107	0.5824958825017269	-0.7451433614098875	0.0	0.5687874876797783	-0.7523570220612877	0.0	0.6885134203464014	-0.7562528185654789	0.0	0.652594083266633	-0.8659425368746352	0.0	0.7018773034063399	-0.8847883860122442	0.0	0.6875931494081632	-0.888132036763019	0.0	0.6413029862442233	-0.880821361107223	0.0	0.6049967549259188	-0.7379972173840637	0.0	0.7153247844176142	-0.747785065700397	0.0	0.6655549570224799	-0.8526722925504601	0.0	0.7140258650989226	-0.8780644466839426	0.0	0.7059714641908792	-0.8742410829443841	0.0	0.6420255329073545	-0.8692890539586628	0.0	0.6987303602081523	-0.6684210689709106	0.0	0.7717058765392873	-0.6520110601978569	0.0	0.7452317691825531	-0.689091201686082	0.0	0.6589009475887754	-0.6792763927882981	0.0	0.5961527258905643	-0.7487683782199253	0.0	0.5556433740204956	-0.831104871708035	0.0	0.6871132421490092	-0.6637265112202366	0.0	0.6516678552782833	-0.7350317628519515	0.0	0.6531068318779164	-0.8091891797631245	0.0
